G75*
G70*
%OFA0B0*%
%FSLAX24Y24*%
%IPPOS*%
%LPD*%
%AMOC8*
5,1,8,0,0,1.08239X$1,22.5*
%
%ADD10C,0.0060*%
%ADD11C,0.0080*%
%ADD12C,0.0050*%
D10*
X004211Y001211D02*
X004532Y001211D01*
X004638Y001318D01*
X004638Y001532D01*
X004532Y001638D01*
X004211Y001638D01*
X004211Y001852D02*
X004211Y001211D01*
X004856Y001211D02*
X005069Y001211D01*
X004963Y001211D02*
X004963Y001638D01*
X004856Y001638D01*
X004963Y001852D02*
X004963Y001959D01*
X005286Y001852D02*
X005286Y001211D01*
X005286Y001425D02*
X005606Y001638D01*
X005823Y001532D02*
X005929Y001638D01*
X006143Y001638D01*
X006250Y001532D01*
X006250Y001425D01*
X005823Y001425D01*
X005823Y001318D02*
X005823Y001532D01*
X005823Y001318D02*
X005929Y001211D01*
X006143Y001211D01*
X006467Y001532D02*
X006894Y001532D01*
X007112Y001532D02*
X007219Y001638D01*
X007539Y001638D01*
X007756Y001532D02*
X007863Y001638D01*
X008077Y001638D01*
X008183Y001532D01*
X008183Y001425D01*
X007756Y001425D01*
X007756Y001318D02*
X007756Y001532D01*
X007756Y001318D02*
X007863Y001211D01*
X008077Y001211D01*
X007539Y001318D02*
X007432Y001425D01*
X007219Y001425D01*
X007112Y001532D01*
X007112Y001211D02*
X007432Y001211D01*
X007539Y001318D01*
X008401Y001638D02*
X008614Y001211D01*
X008828Y001638D01*
X009045Y001532D02*
X009152Y001638D01*
X009366Y001638D01*
X009472Y001532D01*
X009472Y001425D01*
X009045Y001425D01*
X009045Y001318D02*
X009045Y001532D01*
X009045Y001318D02*
X009152Y001211D01*
X009366Y001211D01*
X009690Y001211D02*
X009690Y001638D01*
X010010Y001638D01*
X010117Y001532D01*
X010117Y001211D01*
X010334Y001532D02*
X010761Y001532D01*
X010979Y001745D02*
X011086Y001852D01*
X011299Y001852D01*
X011406Y001745D01*
X011406Y001638D01*
X010979Y001211D01*
X011406Y001211D01*
X011623Y001318D02*
X012050Y001745D01*
X012050Y001318D01*
X011944Y001211D01*
X011730Y001211D01*
X011623Y001318D01*
X011623Y001745D01*
X011730Y001852D01*
X011944Y001852D01*
X012050Y001745D01*
X012268Y001638D02*
X012481Y001852D01*
X012481Y001211D01*
X012268Y001211D02*
X012695Y001211D01*
X012913Y001211D02*
X013340Y001211D01*
X013126Y001211D02*
X013126Y001852D01*
X012913Y001638D01*
X013557Y001638D02*
X013771Y001852D01*
X013771Y001211D01*
X013984Y001211D02*
X013557Y001211D01*
X014202Y001211D02*
X014629Y001211D01*
X014415Y001211D02*
X014415Y001852D01*
X014202Y001638D01*
X014846Y001638D02*
X015060Y001852D01*
X015060Y001211D01*
X015273Y001211D02*
X014846Y001211D01*
X015491Y001318D02*
X015597Y001211D01*
X015811Y001211D01*
X015918Y001318D01*
X015918Y001425D01*
X015811Y001532D01*
X015704Y001532D01*
X015811Y001532D02*
X015918Y001638D01*
X015918Y001745D01*
X015811Y001852D01*
X015597Y001852D01*
X015491Y001745D01*
X005606Y001211D02*
X005286Y001425D01*
X001545Y010211D02*
X001651Y010318D01*
X001651Y010425D01*
X001545Y010532D01*
X001011Y010532D01*
X001011Y010638D02*
X001011Y010425D01*
X001331Y010856D02*
X001224Y010963D01*
X001224Y011176D01*
X001331Y011283D01*
X001438Y011283D01*
X001438Y010856D01*
X001545Y010856D02*
X001331Y010856D01*
X001545Y010856D02*
X001651Y010963D01*
X001651Y011176D01*
X001651Y011607D02*
X001118Y011607D01*
X001011Y011714D01*
X001331Y011714D02*
X001331Y011500D01*
X001331Y011930D02*
X001331Y012144D01*
X001118Y012037D02*
X001011Y012144D01*
X001118Y012037D02*
X001651Y012037D01*
X001651Y013004D02*
X001011Y013004D01*
X001011Y013325D01*
X001118Y013431D01*
X001224Y013431D01*
X001331Y013325D01*
X001331Y013004D01*
X001651Y013004D02*
X001651Y013325D01*
X001545Y013431D01*
X001438Y013431D01*
X001331Y013325D01*
X001331Y013649D02*
X001545Y013649D01*
X001651Y013756D01*
X001651Y013969D01*
X001545Y014076D01*
X001331Y014076D01*
X001224Y013969D01*
X001224Y013756D01*
X001331Y013649D01*
X001331Y014293D02*
X001545Y014293D01*
X001651Y014400D01*
X001651Y014614D01*
X001545Y014720D01*
X001331Y014720D01*
X001224Y014614D01*
X001224Y014400D01*
X001331Y014293D01*
X001331Y014938D02*
X001224Y015045D01*
X001224Y015365D01*
X001224Y015582D02*
X001545Y015582D01*
X001651Y015689D01*
X001651Y016009D01*
X001758Y016009D02*
X001865Y015903D01*
X001865Y015796D01*
X001758Y016009D02*
X001224Y016009D01*
X001011Y015365D02*
X001651Y015365D01*
X001651Y015045D01*
X001545Y014938D01*
X001331Y014938D01*
D11*
X002681Y015381D02*
X002781Y015381D01*
X002681Y015381D02*
X002681Y012981D01*
X002781Y012981D01*
X003781Y018881D02*
X004140Y018913D01*
X004501Y018929D01*
X004861Y018929D01*
X005222Y018913D01*
X005581Y018881D01*
X005633Y018871D01*
X005684Y018857D01*
X005734Y018839D01*
X005782Y018818D01*
X005829Y018793D01*
X005873Y018765D01*
X005916Y018733D01*
X005956Y018699D01*
X005993Y018661D01*
X006027Y018621D01*
X006059Y018579D01*
X006087Y018534D01*
X006111Y018487D01*
X006132Y018439D01*
X006150Y018389D01*
X006163Y018338D01*
X006173Y018286D01*
X006179Y018234D01*
X006181Y018181D01*
X006179Y018128D01*
X006173Y018076D01*
X006163Y018024D01*
X006150Y017973D01*
X006132Y017923D01*
X006111Y017875D01*
X006087Y017828D01*
X006059Y017783D01*
X006027Y017741D01*
X005993Y017701D01*
X005956Y017663D01*
X005916Y017629D01*
X005873Y017597D01*
X005829Y017569D01*
X005782Y017544D01*
X005734Y017523D01*
X005684Y017505D01*
X005633Y017491D01*
X005581Y017481D01*
X003782Y017481D02*
X003730Y017491D01*
X003679Y017505D01*
X003629Y017523D01*
X003581Y017544D01*
X003534Y017569D01*
X003490Y017597D01*
X003447Y017629D01*
X003407Y017663D01*
X003370Y017701D01*
X003336Y017741D01*
X003304Y017783D01*
X003276Y017828D01*
X003252Y017875D01*
X003231Y017923D01*
X003213Y017973D01*
X003200Y018024D01*
X003190Y018076D01*
X003184Y018128D01*
X003182Y018181D01*
X003184Y018234D01*
X003190Y018286D01*
X003200Y018338D01*
X003213Y018389D01*
X003231Y018439D01*
X003252Y018487D01*
X003276Y018534D01*
X003304Y018579D01*
X003336Y018621D01*
X003370Y018661D01*
X003407Y018699D01*
X003447Y018733D01*
X003490Y018765D01*
X003534Y018793D01*
X003581Y018818D01*
X003629Y018839D01*
X003679Y018857D01*
X003730Y018871D01*
X003782Y018881D01*
X003781Y017481D02*
X004140Y017449D01*
X004501Y017433D01*
X004861Y017433D01*
X005222Y017449D01*
X005581Y017481D01*
X007431Y018681D02*
X007931Y018681D01*
X006901Y018181D02*
X006903Y018252D01*
X006909Y018323D01*
X006919Y018394D01*
X006933Y018463D01*
X006950Y018532D01*
X006972Y018600D01*
X006997Y018667D01*
X007026Y018732D01*
X007058Y018795D01*
X007094Y018857D01*
X007133Y018916D01*
X007176Y018973D01*
X007221Y019028D01*
X007270Y019080D01*
X007321Y019129D01*
X007375Y019175D01*
X007432Y019219D01*
X007490Y019259D01*
X007551Y019295D01*
X007614Y019329D01*
X007679Y019358D01*
X007745Y019384D01*
X007813Y019407D01*
X007881Y019425D01*
X007951Y019440D01*
X008021Y019451D01*
X008092Y019458D01*
X008163Y019461D01*
X008234Y019460D01*
X008305Y019455D01*
X008376Y019446D01*
X008446Y019433D01*
X008515Y019417D01*
X008583Y019396D01*
X008650Y019372D01*
X008716Y019344D01*
X008779Y019312D01*
X008841Y019277D01*
X008901Y019239D01*
X008959Y019197D01*
X009014Y019153D01*
X009067Y019105D01*
X009117Y019054D01*
X009164Y019001D01*
X009208Y018945D01*
X009249Y018887D01*
X009287Y018826D01*
X009321Y018764D01*
X009351Y018699D01*
X009378Y018634D01*
X009402Y018566D01*
X009421Y018498D01*
X009437Y018429D01*
X009449Y018358D01*
X009457Y018288D01*
X009461Y018217D01*
X009461Y018145D01*
X009457Y018074D01*
X009449Y018004D01*
X009437Y017933D01*
X009421Y017864D01*
X009402Y017796D01*
X009378Y017728D01*
X009351Y017663D01*
X009321Y017598D01*
X009287Y017536D01*
X009249Y017475D01*
X009208Y017417D01*
X009164Y017361D01*
X009117Y017308D01*
X009067Y017257D01*
X009014Y017209D01*
X008959Y017165D01*
X008901Y017123D01*
X008841Y017085D01*
X008779Y017050D01*
X008716Y017018D01*
X008650Y016990D01*
X008583Y016966D01*
X008515Y016945D01*
X008446Y016929D01*
X008376Y016916D01*
X008305Y016907D01*
X008234Y016902D01*
X008163Y016901D01*
X008092Y016904D01*
X008021Y016911D01*
X007951Y016922D01*
X007881Y016937D01*
X007813Y016955D01*
X007745Y016978D01*
X007679Y017004D01*
X007614Y017033D01*
X007551Y017067D01*
X007490Y017103D01*
X007432Y017143D01*
X007375Y017187D01*
X007321Y017233D01*
X007270Y017282D01*
X007221Y017334D01*
X007176Y017389D01*
X007133Y017446D01*
X007094Y017505D01*
X007058Y017567D01*
X007026Y017630D01*
X006997Y017695D01*
X006972Y017762D01*
X006950Y017830D01*
X006933Y017899D01*
X006919Y017968D01*
X006909Y018039D01*
X006903Y018110D01*
X006901Y018181D01*
X010181Y017931D02*
X010431Y017681D01*
X010931Y017681D01*
X011181Y017931D01*
X011431Y017681D01*
X011931Y017681D01*
X012181Y017931D01*
X012431Y017681D01*
X012931Y017681D01*
X013181Y017931D01*
X013431Y017681D01*
X013931Y017681D01*
X014181Y017931D01*
X014431Y017681D01*
X014931Y017681D01*
X015181Y017931D01*
X015431Y017681D01*
X015931Y017681D01*
X016181Y017931D01*
X016181Y018431D01*
X015931Y018681D01*
X015431Y018681D01*
X015181Y018431D01*
X014931Y018681D01*
X014431Y018681D01*
X014181Y018431D01*
X013931Y018681D01*
X013431Y018681D01*
X013181Y018431D01*
X012931Y018681D01*
X012431Y018681D01*
X012181Y018431D01*
X011931Y018681D01*
X011431Y018681D01*
X011181Y018431D01*
X010931Y018681D01*
X010431Y018681D01*
X010181Y018431D01*
X010181Y017931D01*
X016581Y015381D02*
X016681Y015381D01*
X016681Y014681D01*
X016637Y014679D01*
X016594Y014673D01*
X016552Y014664D01*
X016510Y014651D01*
X016470Y014634D01*
X016431Y014614D01*
X016394Y014591D01*
X016360Y014564D01*
X016327Y014535D01*
X016298Y014502D01*
X016271Y014468D01*
X016248Y014431D01*
X016228Y014392D01*
X016211Y014352D01*
X016198Y014310D01*
X016189Y014268D01*
X016183Y014225D01*
X016181Y014181D01*
X016183Y014137D01*
X016189Y014094D01*
X016198Y014052D01*
X016211Y014010D01*
X016228Y013970D01*
X016248Y013931D01*
X016271Y013894D01*
X016298Y013860D01*
X016327Y013827D01*
X016360Y013798D01*
X016394Y013771D01*
X016431Y013748D01*
X016470Y013728D01*
X016510Y013711D01*
X016552Y013698D01*
X016594Y013689D01*
X016637Y013683D01*
X016681Y013681D01*
X016681Y012981D01*
X016581Y012981D01*
X018181Y013431D02*
X018431Y013181D01*
X018931Y013181D01*
X019181Y013431D01*
X019181Y013931D01*
X018931Y014181D01*
X019181Y014431D01*
X019181Y014931D01*
X018931Y015181D01*
X018431Y015181D01*
X018181Y014931D01*
X018181Y014431D01*
X018431Y014181D01*
X018181Y013931D01*
X018181Y013431D01*
X018431Y011181D02*
X018931Y011181D01*
X019181Y010931D01*
X019181Y010431D01*
X018931Y010181D01*
X019181Y009931D01*
X019181Y009431D01*
X018931Y009181D01*
X018431Y009181D01*
X018181Y009431D01*
X018181Y009931D01*
X018431Y010181D01*
X018181Y010431D01*
X018181Y010931D01*
X018431Y011181D01*
X016516Y010792D02*
X016516Y009571D01*
X015847Y009571D01*
X015847Y010792D01*
X016516Y010792D01*
X015516Y010792D02*
X014847Y010792D01*
X014847Y009571D01*
X015516Y009571D01*
X015516Y010792D01*
X014516Y010792D02*
X014516Y009571D01*
X013847Y009571D01*
X013847Y010792D01*
X014516Y010792D01*
X012516Y010792D02*
X012516Y009571D01*
X011847Y009571D01*
X011847Y010792D01*
X012516Y010792D01*
X011516Y010792D02*
X010847Y010792D01*
X010847Y009571D01*
X011516Y009571D01*
X011516Y010792D01*
X008931Y010181D02*
X008431Y010181D01*
X006516Y009571D02*
X006516Y010792D01*
X005847Y010792D01*
X005847Y009571D01*
X006516Y009571D01*
X004516Y009571D02*
X004516Y010792D01*
X003847Y010792D01*
X003847Y009571D01*
X004516Y009571D01*
X003516Y009571D02*
X003516Y010792D01*
X002847Y010792D01*
X002847Y009571D01*
X003516Y009571D01*
X018181Y005931D02*
X018181Y005431D01*
X018431Y005181D01*
X018181Y004931D01*
X018181Y004431D01*
X018431Y004181D01*
X018931Y004181D01*
X019181Y004431D01*
X019181Y004931D01*
X018931Y005181D01*
X019181Y005431D01*
X019181Y005931D01*
X018931Y006181D01*
X018431Y006181D01*
X018181Y005931D01*
D12*
X016591Y002662D02*
X000772Y002662D01*
X000772Y007701D01*
X016591Y007701D01*
X016591Y002662D01*
X012788Y007235D02*
X012790Y007266D01*
X012796Y007297D01*
X012806Y007327D01*
X012819Y007355D01*
X012836Y007382D01*
X012856Y007406D01*
X012879Y007428D01*
X012904Y007446D01*
X012932Y007461D01*
X012961Y007473D01*
X012991Y007481D01*
X013022Y007485D01*
X013054Y007485D01*
X013085Y007481D01*
X013115Y007473D01*
X013144Y007461D01*
X013172Y007446D01*
X013197Y007428D01*
X013220Y007406D01*
X013240Y007382D01*
X013257Y007355D01*
X013270Y007327D01*
X013280Y007297D01*
X013286Y007266D01*
X013288Y007235D01*
X013286Y007204D01*
X013280Y007173D01*
X013270Y007143D01*
X013257Y007115D01*
X013240Y007088D01*
X013220Y007064D01*
X013197Y007042D01*
X013172Y007024D01*
X013144Y007009D01*
X013115Y006997D01*
X013085Y006989D01*
X013054Y006985D01*
X013022Y006985D01*
X012991Y006989D01*
X012961Y006997D01*
X012932Y007009D01*
X012904Y007024D01*
X012879Y007042D01*
X012856Y007064D01*
X012836Y007088D01*
X012819Y007115D01*
X012806Y007143D01*
X012796Y007173D01*
X012790Y007204D01*
X012788Y007235D01*
M02*
