%
M48
M72
T01C0.0276
T02C0.0300
T03C0.0315
T04C0.0320
T05C0.0400
T06C0.1102
%
T01
X8681Y9197
X8681Y11166
X8681Y18181
X7681Y18181
T02
X6181Y11166
X6181Y9197
X4181Y9197
X3181Y9197
X3181Y11166
X4181Y11166
X11181Y11166
X12181Y11166
X12181Y9197
X11181Y9197
X14181Y9197
X15181Y9197
X16181Y9197
X16181Y11166
X15181Y11166
X14181Y11166
T03
X12181Y7181
X11181Y7181
X10181Y7181
X9181Y7181
X8181Y7181
X7181Y7181
X6181Y7181
X5181Y7181
X5181Y3181
X6181Y3181
X7181Y3181
X8181Y3181
X9181Y3181
X10181Y3181
X11181Y3181
X12181Y3181
X5681Y18181
X4681Y18181
X3681Y18181
T04
X3181Y15681
X4181Y15681
X5181Y15681
X6181Y15681
X7181Y15681
X8181Y15681
X9181Y15681
X10181Y15681
X11181Y15681
X12181Y15681
X13181Y15681
X14181Y15681
X15181Y15681
X16181Y15681
X16181Y12681
X15181Y12681
X14181Y12681
X13181Y12681
X12181Y12681
X11181Y12681
X10181Y12681
X9181Y12681
X8181Y12681
X7181Y12681
X6181Y12681
X5181Y12681
X4181Y12681
X3181Y12681
T05
X10681Y18181
X11681Y18181
X12681Y18181
X13681Y18181
X14681Y18181
X15681Y18181
X18681Y14681
X18681Y13681
X18681Y10681
X18681Y9681
X18681Y5681
X18681Y4681
T06
X1181Y1181
X1181Y19181
X19181Y19181
X19181Y1181
M30
