G75*
G70*
%OFA0B0*%
%FSLAX24Y24*%
%IPPOS*%
%LPD*%
%AMOC8*
5,1,8,0,0,1.08239X$1,22.5*
%
%ADD10C,0.1182*%
%ADD11C,0.0640*%
%ADD12C,0.0820*%
%ADD13C,0.0620*%
%ADD14C,0.0780*%
%ADD15C,0.0730*%
%ADD16R,0.0730X0.0730*%
D10*
X001181Y001181D03*
X001181Y019181D03*
X019181Y019181D03*
X019181Y001181D03*
D11*
X016181Y012401D02*
X016181Y012961D01*
X015181Y012961D02*
X015181Y012401D01*
X014181Y012401D02*
X014181Y012961D01*
X013181Y012961D02*
X013181Y012401D01*
X012181Y012401D02*
X012181Y012961D01*
X011181Y012961D02*
X011181Y012401D01*
X010181Y012401D02*
X010181Y012961D01*
X009181Y012961D02*
X009181Y012401D01*
X008181Y012401D02*
X008181Y012961D01*
X007181Y012961D02*
X007181Y012401D01*
X006181Y012401D02*
X006181Y012961D01*
X005181Y012961D02*
X005181Y012401D01*
X004181Y012401D02*
X004181Y012961D01*
X003181Y012961D02*
X003181Y012401D01*
X003181Y015401D02*
X003181Y015961D01*
X004181Y015961D02*
X004181Y015401D01*
X005181Y015401D02*
X005181Y015961D01*
X006181Y015961D02*
X006181Y015401D01*
X007181Y015401D02*
X007181Y015961D01*
X008181Y015961D02*
X008181Y015401D01*
X009181Y015401D02*
X009181Y015961D01*
X010181Y015961D02*
X010181Y015401D01*
X011181Y015401D02*
X011181Y015961D01*
X012181Y015961D02*
X012181Y015401D01*
X013181Y015401D02*
X013181Y015961D01*
X014181Y015961D02*
X014181Y015401D01*
X015181Y015401D02*
X015181Y015961D01*
X016181Y015961D02*
X016181Y015401D01*
D12*
X018681Y014681D03*
X018681Y013681D03*
X018681Y010681D03*
X018681Y009681D03*
X018681Y005681D03*
X018681Y004681D03*
X015681Y018181D03*
X014681Y018181D03*
X013681Y018181D03*
X012681Y018181D03*
X011681Y018181D03*
X010681Y018181D03*
X005681Y018181D03*
X004681Y018181D03*
X003681Y018181D03*
D13*
X003181Y011166D03*
X004181Y011166D03*
X004181Y009197D03*
X003181Y009197D03*
X006181Y009197D03*
X006181Y011166D03*
X011181Y011166D03*
X012181Y011166D03*
X012181Y009197D03*
X011181Y009197D03*
X014181Y009197D03*
X015181Y009197D03*
X016181Y009197D03*
X016181Y011166D03*
X015181Y011166D03*
X014181Y011166D03*
D14*
X012181Y007181D03*
X011181Y007181D03*
X010181Y007181D03*
X009181Y007181D03*
X008181Y007181D03*
X007181Y007181D03*
X006181Y007181D03*
X005181Y007181D03*
X005181Y003181D03*
X006181Y003181D03*
X007181Y003181D03*
X008181Y003181D03*
X009181Y003181D03*
X010181Y003181D03*
X011181Y003181D03*
X012181Y003181D03*
D15*
X008681Y009197D03*
X008681Y011166D03*
X007681Y018181D03*
D16*
X008681Y018181D03*
M02*
